<?xml version="1.0" encoding="utf-8"?>
<!-- Generator: Adobe Illustrator 22.1.0, SVG Export Plug-In . SVG Version: 6.00 Build 0)  -->
<svg version="1.1" id="Layer_1" xmlns="http://www.w3.org/2000/svg" xmlns:xlink="http://www.w3.org/1999/xlink" x="0px" y="0px"
	 width="85px" height="66px" viewBox="0 0 85 66" style="enable-background:new 0 0 85 66;" xml:space="preserve">
<style type="text/css">
	.st0{fill:#FFFFFF;stroke:#B75041;stroke-miterlimit:10;}
</style>
<g>
	<path class="st0" d="M29.3,37.3h9.2c0,1.1,0.4,1.9,1.1,2.3c0.6,0.4,1.4,0.6,2.3,0.7c2-0.1,3.1-0.8,3.1-2.2c0-1.1-1.7-1.9-5-2.5
		c-6.5-1.3-9.7-3.9-9.7-7.7c0.1-5,3.9-7.7,11.3-7.9c7.5,0,11.6,2.5,12,7.5h-8.8c0-0.7-0.3-1.3-0.9-1.6c-0.6-0.5-1.3-0.7-2-0.7
		c-1.8,0-2.7,0.6-2.7,1.8c0,0.8,1.6,1.6,4.8,2.2c6.9,1.6,10.4,4.2,10.4,7.9c-0.1,5.3-4.4,8-12.9,8.1C33.8,45.1,29.7,42.4,29.3,37.3z
		"/>
</g>
</svg>
